<?xml version="1.0" standalone="no"?>
<!DOCTYPE svg PUBLIC "-//W3C//DTD SVG 20010904//EN"
 "http://www.w3.org/TR/2001/REC-SVG-20010904/DTD/svg10.dtd">
<svg version="1.0" xmlns="http://www.w3.org/2000/svg"
 width="1980.000000pt" height="1980.000000pt" viewBox="0 0 1980.000000 1980.000000"
 preserveAspectRatio="xMidYMid meet">
<metadata>
Created by potrace 1.11, written by Peter Selinger 2001-2013
</metadata>
<g transform="translate(0.000000,1980.000000) scale(0.100000,-0.100000)"
fill="#000000" stroke="none">
<path d="M7100 12422 c0 -79 3 -82 75 -82 69 0 216 -29 270 -54 99 -45 145
-116 170 -264 14 -77 15 -337 12 -2123 -3 -2190 0 -2074 -52 -2182 -51 -107
-162 -158 -379 -175 l-91 -7 -3 -73 -3 -73 133 8 c172 10 1713 10 1926 0 l162
-8 0 74 0 74 -98 6 c-123 8 -241 38 -295 75 -51 33 -99 111 -115 184 -27 119
-31 289 -32 1131 l0 877 253 0 c138 0 281 -5 317 -11 201 -32 341 -176 438
-451 52 -146 88 -314 182 -843 105 -593 115 -636 190 -788 60 -119 160 -228
274 -296 279 -166 822 -177 1151 -22 106 50 198 116 306 219 99 93 98 88 27
144 l-40 31 -56 -56 c-84 -81 -129 -102 -227 -102 -69 0 -86 4 -127 27 -59 35
-100 92 -137 188 -38 99 -53 158 -161 654 -50 231 -103 458 -116 505 -86 294
-258 501 -534 637 -162 79 -425 149 -668 176 -117 13 -125 21 -32 32 230 28
542 117 724 206 199 97 398 250 512 393 78 98 172 283 209 412 80 277 65 587
-41 828 -162 369 -554 621 -1130 727 -299 55 -284 55 -1589 55 -665 0 -1254 4
-1307 9 l-98 9 0 -71z m2324 -93 c87 -12 199 -49 274 -91 31 -17 94 -69 139
-114 71 -71 89 -97 137 -195 94 -193 133 -382 143 -694 11 -349 -37 -641 -138
-836 -94 -181 -253 -315 -454 -383 -122 -42 -176 -48 -462 -53 l-283 -5 0 928
c0 929 5 1098 36 1218 29 113 95 186 196 217 86 27 256 30 412 8z"/>
<path d="M12080 12421 c0 -77 4 -81 86 -81 73 0 218 -30 271 -56 105 -51 155
-148 173 -339 12 -131 13 -3867 0 -3995 -5 -52 -14 -118 -20 -146 -15 -69 -66
-152 -115 -186 -50 -35 -173 -66 -296 -76 l-94 -7 -3 -73 -3 -72 168 7 c198 9
1007 10 1773 3 584 -5 652 -2 950 51 1071 190 1817 851 2054 1819 60 250 80
432 80 750 0 350 -36 622 -119 893 -271 895 -957 1408 -2060 1542 -265 32
-456 38 -990 29 -638 -11 -1428 -12 -1672 -2 l-183 8 0 -69z m2550 -86 c472
-78 792 -310 1000 -725 200 -400 292 -989 277 -1780 -13 -669 -92 -1141 -250
-1494 -53 -118 -96 -192 -178 -302 -188 -251 -440 -406 -771 -475 -150 -30
-385 -45 -525 -32 -241 23 -335 88 -385 268 l-23 80 -3 2010 c-2 1398 0 2035
8 2093 18 140 44 206 103 267 58 58 122 88 229 104 88 14 404 5 518 -14z"/>
<path d="M3120 9935 l0 -2545 145 0 145 0 0 963 c0 1003 2 1046 45 1247 37
173 113 359 212 513 57 90 245 278 338 339 234 152 510 228 823 228 526 0 909
-245 1067 -680 15 -41 36 -118 48 -170 20 -93 21 -118 24 -1267 l4 -1173 144
0 145 0 0 1143 c0 1240 -2 1286 -55 1492 -120 462 -426 772 -878 889 -406 106
-883 58 -1242 -124 -148 -74 -231 -135 -350 -255 -116 -115 -205 -241 -275
-388 l-50 -102 0 1218 0 1217 -145 0 -145 0 0 -2545z"/>
</g>
</svg>
